<?xml version="1.0" encoding="UTF-8" standalone="no"?>
<!DOCTYPE svg PUBLIC "-//W3C//DTD SVG 1.1//EN" "http://www.w3.org/Graphics/SVG/1.1/DTD/svg11.dtd">
<svg version="1.1" xmlns="http://www.w3.org/2000/svg" xmlns:xlink="http://www.w3.org/1999/xlink" preserveAspectRatio="xMidYMid meet" viewBox="0 0 100 100" width="100" height="100"><defs><path d="M38.69 48.36C33.62 48.36 29.5 44.25 29.5 39.17C29.5 34.1 33.62 29.99 38.69 29.99C43.76 29.99 47.88 34.1 47.88 39.17C47.88 44.25 43.76 48.36 38.69 48.36Z" id="b9BWFkne37"></path><path d="M63 48.36C57.93 48.36 53.81 44.25 53.81 39.17C53.81 34.1 57.93 29.99 63 29.99C68.07 29.99 72.19 34.1 72.19 39.17C72.19 44.25 68.07 48.36 63 48.36Z" id="d1ulg5N10K"></path><path d="M49.88 26.67C44.81 26.67 40.7 22.55 40.7 17.48C40.7 12.4 44.81 8.29 49.88 8.29C54.96 8.29 59.07 12.4 59.07 17.48C59.07 22.55 54.96 26.67 49.88 26.67Z" id="a1WpXW1cH7"></path><path d="M19.5 44.9C17.92 44.9 5.24 44.9 3.65 44.9C3.65 70.75 24.61 91.71 50.46 91.71C76.32 91.71 97.28 70.75 97.28 44.9C95.69 44.9 83.01 44.9 81.43 44.9C81.43 62 67.57 75.86 50.47 75.86C33.37 75.86 19.5 62 19.5 44.9Z" id="cZmLdsu9t"></path></defs><g><g><g><use xlink:href="#b9BWFkne37" opacity="1" fill="#67bc45" fill-opacity="1"></use><g><use xlink:href="#b9BWFkne37" opacity="1" fill-opacity="0" stroke="#000000" stroke-width="1" stroke-opacity="0"></use></g></g><g><use xlink:href="#d1ulg5N10K" opacity="1" fill="#67bc45" fill-opacity="1"></use><g><use xlink:href="#d1ulg5N10K" opacity="1" fill-opacity="0" stroke="#000000" stroke-width="1" stroke-opacity="0"></use></g></g><g><use xlink:href="#a1WpXW1cH7" opacity="1" fill="#67bc45" fill-opacity="1"></use><g><use xlink:href="#a1WpXW1cH7" opacity="1" fill-opacity="0" stroke="#000000" stroke-width="1" stroke-opacity="0"></use></g></g><g><use xlink:href="#cZmLdsu9t" opacity="1" fill="#67bc45" fill-opacity="1"></use><g><use xlink:href="#cZmLdsu9t" opacity="1" fill-opacity="0" stroke="#000000" stroke-width="1" stroke-opacity="0"></use></g></g></g></g></svg>